<svg width="56" height="56" viewBox="0 0 56 56" fill="none" xmlns="http://www.w3.org/2000/svg">
<path d="M27.3103 15.5759C26.7994 12.7906 28.1164 9.92416 29.7025 7.99244C31.4504 5.86103 34.4501 4.2265 37.0136 4.04688C37.4467 6.96709 36.2549 9.81231 34.6862 11.8248C33.0034 13.9869 30.1101 15.6635 27.3103 15.5759ZM42.3469 25.6685C43.1401 23.4555 44.7115 21.4643 47.1494 20.1209C44.6859 17.0466 41.227 15.2618 37.9629 15.2618C33.6443 15.2618 31.8183 17.3193 28.8187 17.3193C25.7287 17.3193 23.3845 15.2618 19.6437 15.2618C15.9756 15.2618 12.071 17.4976 9.59468 21.3159C8.68418 22.7273 8.06739 24.4807 7.73102 26.4337C6.79764 31.9124 8.1919 39.0484 12.3509 45.3847C14.3731 48.4593 17.0685 51.9226 20.5898 51.9527C23.7266 51.9834 24.6164 49.9472 28.8628 49.9262C33.1155 49.9021 33.9215 51.9738 37.054 51.9439C40.5762 51.9142 43.4201 48.0815 45.4423 45.0073C46.8822 42.8012 47.4267 41.6868 48.5464 39.1926C42.8532 37.0457 40.5117 30.7723 42.3469 25.6685Z" fill="black"/>
</svg>
