<svg width="24" height="29" viewBox="0 0 24 29" fill="none" xmlns="http://www.w3.org/2000/svg">
<g clip-path="url(#clip0_345_547)">
<mask id="mask0_345_547" style="mask-type:luminance" maskUnits="userSpaceOnUse" x="0" y="2" width="24" height="25">
<path d="M24 2.83984H0V26.8398H24V2.83984Z" fill="white"/>
</mask>
<g mask="url(#mask0_345_547)">
<path d="M11.88 11.9798C13.16 12.0398 13.49 13.1298 13.51 13.6398H15.3C15.22 11.6598 13.81 10.4498 11.85 10.4498C9.64 10.4498 8 11.8398 8 14.9798C8 16.9198 8.93 19.2198 11.84 19.2198C14.06 19.2198 15.25 17.5698 15.28 16.2698H13.49C13.46 16.8598 13.04 17.6498 11.86 17.7098C10.55 17.6698 10 16.6498 10 14.9798C10 12.0898 11.28 11.9998 11.88 11.9798ZM12 4.83984C6.48 4.83984 2 9.31984 2 14.8398C2 20.3598 6.48 24.8398 12 24.8398C17.52 24.8398 22 20.3598 22 14.8398C22 9.31984 17.52 4.83984 12 4.83984ZM12 22.8398C7.59 22.8398 4 19.2498 4 14.8398C4 10.4298 7.59 6.83984 12 6.83984C16.41 6.83984 20 10.4298 20 14.8398C20 19.2498 16.41 22.8398 12 22.8398Z" fill="white"/>
</g>
</g>
<defs>
<clipPath id="clip0_345_547">
<rect width="24" height="28" fill="white" transform="translate(0 0.839844)"/>
</clipPath>
</defs>
</svg>
