<svg width="21" height="16" viewBox="0 0 21 16" fill="none" xmlns="http://www.w3.org/2000/svg">
<g clip-path="url(#clip0_321_282)">
<mask id="mask0_321_282" style="mask-type:luminance" maskUnits="userSpaceOnUse" x="0" y="0" width="21" height="16">
<path d="M20.9998 0H0.345215V16H20.9998V0Z" fill="white"/>
</mask>
<g mask="url(#mask0_321_282)">
<path d="M17.8302 1.42466C16.5137 0.82062 15.102 0.375587 13.626 0.120698C13.5991 0.115779 13.5723 0.128072 13.5584 0.15266C13.3769 0.475572 13.1758 0.896838 13.0349 1.22795C11.4474 0.990278 9.86798 0.990278 8.31298 1.22795C8.17212 0.889478 7.96372 0.475572 7.78135 0.15266C7.7675 0.128893 7.74065 0.116599 7.71377 0.120698C6.23857 0.374772 4.82687 0.819805 3.50961 1.42466C3.4982 1.42958 3.48843 1.43778 3.48194 1.44843C0.804255 5.44884 0.0707243 9.35092 0.43057 13.2046C0.432198 13.2235 0.442782 13.2415 0.457436 13.253C2.2241 14.5504 3.93541 15.338 5.61495 15.8601C5.64183 15.8683 5.67031 15.8584 5.68741 15.8363C6.08471 15.2938 6.43886 14.7217 6.74251 14.1201C6.76043 14.0849 6.74332 14.043 6.7067 14.0291C6.14495 13.816 5.61006 13.5562 5.09553 13.2612C5.05483 13.2374 5.05157 13.1792 5.08901 13.1513C5.19729 13.0702 5.30559 12.9858 5.40898 12.9005C5.42769 12.885 5.45375 12.8817 5.47575 12.8915C8.85599 14.4348 12.5155 14.4348 15.8559 12.8915C15.8779 12.8809 15.9039 12.8842 15.9235 12.8997C16.0269 12.985 16.1352 13.0702 16.2442 13.1513C16.2817 13.1792 16.2792 13.2374 16.2385 13.2612C15.724 13.5619 15.1891 13.816 14.6266 14.0283C14.5899 14.0422 14.5736 14.0849 14.5916 14.1201C14.9017 14.7208 15.2559 15.2929 15.6458 15.8355C15.6621 15.8584 15.6914 15.8683 15.7183 15.8601C17.406 15.338 19.1173 14.5504 20.884 13.253C20.8994 13.2415 20.9092 13.2243 20.9108 13.2054C21.3415 8.75013 20.1895 4.88005 17.857 1.44924C17.8513 1.43778 17.8416 1.42958 17.8302 1.42466ZM7.2473 10.8581C6.22961 10.8581 5.39106 9.9238 5.39106 8.77637C5.39106 7.62894 6.21335 6.69463 7.2473 6.69463C8.28936 6.69463 9.11979 7.63714 9.1035 8.77637C9.1035 9.9238 8.28122 10.8581 7.2473 10.8581ZM14.1104 10.8581C13.0927 10.8581 12.2542 9.9238 12.2542 8.77637C12.2542 7.62894 13.0764 6.69463 14.1104 6.69463C15.1525 6.69463 15.9829 7.63714 15.9666 8.77637C15.9666 9.9238 15.1525 10.8581 14.1104 10.8581Z" fill="white"/>
</g>
</g>
<defs>
<clipPath id="clip0_321_282">
<rect width="20.6545" height="16" fill="white" transform="translate(0.345215)"/>
</clipPath>
</defs>
</svg>
