<svg width="143" height="108" viewBox="0 0 143 108" fill="none" xmlns="http://www.w3.org/2000/svg">
<g clip-path="url(#clip0_136_115)">
<path d="M0 12.6934V9C0 6.61305 0.941627 4.32387 2.61773 2.63604C4.29384 0.948212 6.56713 0 8.9375 0L134.062 0C136.433 0 138.706 0.948212 140.382 2.63604C142.058 4.32387 143 6.61305 143 9V12.6934L71.5 57.6934L0 12.6934ZM73.8684 66.8171C73.158 67.2636 72.3374 67.5003 71.5 67.5003C70.6626 67.5003 69.842 67.2636 69.1316 66.8171L0 23.3066V99C0 101.387 0.941627 103.676 2.61773 105.364C4.29384 107.052 6.56713 108 8.9375 108H134.062C136.433 108 138.706 107.052 140.382 105.364C142.058 103.676 143 101.387 143 99V23.3066L73.8684 66.8171Z" fill="black"/>
</g>
<defs>
<clipPath id="clip0_136_115">
<rect width="143" height="108" fill="white"/>
</clipPath>
</defs>
</svg>
