<svg width="56" height="56" viewBox="0 0 56 56" fill="none" xmlns="http://www.w3.org/2000/svg">
<path d="M49 28C49 22.4305 46.7875 17.089 42.8493 13.1508C38.911 9.2125 33.5696 7.00001 28 7.00001C22.7121 6.99513 17.6169 8.98538 13.7323 12.5732C9.84772 16.1611 7.45969 21.0824 7.04523 26.3541C6.63077 31.6258 8.22039 36.8598 11.4966 41.0106C14.7727 45.1614 19.4943 47.9235 24.718 48.745V34.069H19.39V28H24.721V23.374C24.721 18.112 27.856 15.202 32.653 15.202C34.951 15.202 37.354 15.613 37.354 15.613V20.782H34.705C32.095 20.782 31.285 22.402 31.285 24.061V28H37.108L36.178 34.069H31.282V48.745C36.2215 47.9628 40.7198 45.4437 43.9678 41.6409C47.2157 37.8381 49.0001 33.0011 49 28Z" fill="#1877F2"/>
<path d="M36.175 34.069L37.105 28H31.282V24.061C31.282 22.402 32.092 20.782 34.702 20.782H37.351V15.61C37.351 15.61 34.948 15.199 32.65 15.199C27.85 15.199 24.718 18.109 24.718 23.371V28H19.39V34.069H24.721V48.745C26.8956 49.0872 29.1104 49.0872 31.285 48.745V34.069H36.175Z" fill="white"/>
</svg>
