<svg width="56" height="56" viewBox="0 0 56 56" fill="none" xmlns="http://www.w3.org/2000/svg">
<path fill-rule="evenodd" clip-rule="evenodd" d="M14.3273 28C14.3273 26.4757 14.5804 25.0144 15.0323 23.6437L7.12344 17.6042C5.58205 20.7338 4.71362 24.2602 4.71362 28C4.71362 31.7365 5.58099 35.2608 7.12024 38.3882L15.0248 32.337C14.5772 30.9728 14.3273 29.5168 14.3273 28Z" fill="#FBBC05"/>
<path fill-rule="evenodd" clip-rule="evenodd" d="M28.2136 14.1333C31.525 14.1333 34.5159 15.3067 36.8659 17.2267L43.7022 10.4C39.5363 6.77333 34.1954 4.53333 28.2136 4.53333C18.9268 4.53333 10.9454 9.84426 7.12341 17.6043L15.0322 23.6437C16.8545 18.112 22.0491 14.1333 28.2136 14.1333Z" fill="#EB4335"/>
<path fill-rule="evenodd" clip-rule="evenodd" d="M28.2136 41.8666C22.0491 41.8666 16.8545 37.8879 15.0322 32.3562L7.12341 38.3946C10.9454 46.1557 18.9268 51.4666 28.2136 51.4666C33.9455 51.4666 39.4178 49.4314 43.5249 45.6181L36.0177 39.8143C33.8995 41.1487 31.2323 41.8666 28.2136 41.8666Z" fill="#34A853"/>
<path fill-rule="evenodd" clip-rule="evenodd" d="M50.6454 27.9999C50.6454 26.6133 50.4318 25.1199 50.1113 23.7333H28.2136V32.7999H40.8182C40.1879 35.8911 38.4724 38.2677 36.0178 39.8143L43.5249 45.6181C47.8393 41.6138 50.6454 35.649 50.6454 27.9999Z" fill="#4285F4"/>
</svg>
