<svg width="17" height="16" viewBox="0 0 17 16" fill="none" xmlns="http://www.w3.org/2000/svg">
<g clip-path="url(#clip0_321_270)">
<path d="M4.76828 0.0559501C3.91708 0.0961101 3.3358 0.23195 2.82764 0.43163C2.30172 0.63659 1.85596 0.91163 1.41244 1.35675C0.968916 1.80187 0.695796 2.24795 0.492276 2.77467C0.295316 3.28395 0.161876 3.86571 0.124276 4.71739C0.0866759 5.56907 0.0783559 5.84283 0.0825159 8.01531C0.0866759 10.1878 0.0962759 10.4601 0.137556 11.3135C0.178196 12.1646 0.313556 12.7457 0.513236 13.254C0.718516 13.7799 0.993236 14.2255 1.43852 14.6692C1.8838 15.1129 2.32956 15.3854 2.85756 15.5892C3.36636 15.7859 3.94828 15.9199 4.7998 15.9572C5.65132 15.9945 5.9254 16.0031 8.09724 15.999C10.2691 15.9948 10.5425 15.9852 11.3958 15.9447C12.2491 15.9043 12.8272 15.7679 13.3356 15.5692C13.8616 15.3635 14.3075 15.0892 14.7508 14.6438C15.1942 14.1983 15.4672 13.7519 15.6705 13.2249C15.8676 12.7161 16.0016 12.1342 16.0385 11.2833C16.0758 10.4294 16.0846 10.1567 16.0804 7.98459C16.0763 5.81243 16.0665 5.54011 16.026 4.68699C15.9856 3.83387 15.85 3.25451 15.6505 2.74587C15.4449 2.21995 15.1705 1.77467 14.7254 1.33067C14.2803 0.88667 13.8336 0.61387 13.3067 0.41099C12.7976 0.21403 12.216 0.0797901 11.3644 0.0429901C10.5129 0.00619009 10.2388 -0.00324991 8.0662 0.000910089C5.89356 0.00507009 5.62156 0.0143501 4.76828 0.0559501ZM4.86172 14.518C4.08172 14.4841 3.6582 14.3545 3.37596 14.246C3.0022 14.102 2.73596 13.9279 2.45468 13.6494C2.1734 13.3708 2.0006 13.1036 1.85468 12.7307C1.74508 12.4484 1.61308 12.0254 1.5766 11.2454C1.53692 10.4023 1.5286 10.1492 1.52396 8.01339C1.51932 5.87755 1.52748 5.62475 1.56444 4.78139C1.59772 4.00203 1.72812 3.57803 1.83644 3.29595C1.98044 2.92171 2.15388 2.65595 2.43308 2.37483C2.71228 2.09371 2.97868 1.92059 3.35196 1.77467C3.63388 1.66459 4.05692 1.53371 4.8366 1.49659C5.68028 1.45659 5.93308 1.44859 8.0686 1.44395C10.2041 1.43931 10.4576 1.44731 11.3016 1.48443C12.0809 1.51835 12.5051 1.64747 12.7868 1.75643C13.1608 1.90043 13.4268 2.07339 13.708 2.35307C13.9891 2.63275 14.1624 2.89819 14.3083 3.27227C14.4185 3.55339 14.5494 3.97627 14.5862 4.75643C14.6264 5.60011 14.6355 5.85307 14.6393 7.98843C14.6432 10.1238 14.6356 10.3774 14.5987 11.2204C14.5646 12.0004 14.4353 12.4241 14.3267 12.7067C14.1827 13.0803 14.0091 13.3467 13.7297 13.6276C13.4504 13.9086 13.1843 14.0817 12.8108 14.2276C12.5292 14.3375 12.1057 14.4687 11.3267 14.5059C10.483 14.5455 10.2302 14.5539 8.09388 14.5585C5.95756 14.5631 5.70556 14.5545 4.86188 14.518M11.3835 3.72427C11.3838 3.91415 11.4404 4.09968 11.5462 4.25738C11.6519 4.41508 11.8021 4.53788 11.9777 4.61023C12.1532 4.68259 12.3463 4.70126 12.5324 4.66388C12.7186 4.62651 12.8895 4.53476 13.0235 4.40024C13.1576 4.26573 13.2487 4.09449 13.2854 3.90819C13.3221 3.72188 13.3027 3.52888 13.2297 3.35359C13.1567 3.1783 13.0333 3.0286 12.8753 2.92341C12.7172 2.81823 12.5314 2.76229 12.3416 2.76267C12.087 2.76318 11.8431 2.86477 11.6634 3.04509C11.4837 3.22542 11.383 3.46972 11.3835 3.72427ZM3.97388 8.00795C3.97836 10.2767 5.82092 12.1118 8.08924 12.1075C10.3576 12.1031 12.1939 10.2607 12.1896 7.99195C12.1852 5.72315 10.3422 3.88763 8.07356 3.89211C5.80492 3.89659 3.96956 5.73947 3.97388 8.00795ZM5.41484 8.00507C5.41379 7.47764 5.56917 6.96175 5.86133 6.52263C6.15348 6.08352 6.56929 5.74089 7.05617 5.53809C7.54305 5.33529 8.07913 5.28142 8.59662 5.38329C9.11412 5.48516 9.58978 5.7382 9.96347 6.11041C10.3372 6.48262 10.5921 6.95728 10.696 7.47436C10.7999 7.99145 10.7482 8.52774 10.5473 9.01542C10.3464 9.5031 10.0054 9.92026 9.56749 10.2142C9.12953 10.508 8.61426 10.6655 8.08684 10.6665C7.73662 10.6672 7.3897 10.599 7.06587 10.4656C6.74205 10.3323 6.44766 10.1364 6.19954 9.88927C5.95141 9.64213 5.7544 9.34852 5.61976 9.02523C5.48512 8.70193 5.41549 8.35528 5.41484 8.00507Z" fill="white"/>
</g>
<defs>
<clipPath id="clip0_321_270">
<rect width="16" height="16" fill="white" transform="translate(0.081543)"/>
</clipPath>
</defs>
</svg>
