<svg width="16" height="24" viewBox="0 0 16 24" fill="none" xmlns="http://www.w3.org/2000/svg">
<path d="M3.61426 8.54688V17H1.16895V8.54688H3.61426ZM1.02051 6.35938C1.02051 6.00521 1.14551 5.71615 1.39551 5.49219C1.64551 5.26302 1.97363 5.14844 2.37988 5.14844C2.78613 5.14844 3.11426 5.26302 3.36426 5.49219C3.61947 5.71615 3.74707 6.00521 3.74707 6.35938C3.74707 6.70833 3.61947 6.9974 3.36426 7.22656C3.11426 7.45052 2.78613 7.5625 2.37988 7.5625C1.97363 7.5625 1.64551 7.45052 1.39551 7.22656C1.14551 6.9974 1.02051 6.70833 1.02051 6.35938ZM8.8827 10.3516V17H6.43738V8.54688H8.73426L8.8827 10.3516ZM8.56238 12.4766L7.95301 12.4922C7.95301 11.8568 8.03113 11.2865 8.18738 10.7812C8.34363 10.276 8.56499 9.84635 8.85145 9.49219C9.14311 9.13281 9.48947 8.85938 9.89051 8.67188C10.2968 8.48438 10.7447 8.39062 11.2343 8.39062C11.6301 8.39062 11.9921 8.44792 12.3202 8.5625C12.6483 8.67708 12.9296 8.86198 13.1639 9.11719C13.4035 9.36719 13.5858 9.70052 13.7108 10.1172C13.8358 10.5286 13.8983 11.0365 13.8983 11.6406V17H11.4452V11.6328C11.4452 11.2786 11.3957 11.0052 11.2968 10.8125C11.1978 10.6198 11.052 10.4844 10.8593 10.4062C10.6718 10.3281 10.4426 10.2891 10.1718 10.2891C9.8853 10.2891 9.64051 10.3464 9.43738 10.4609C9.23426 10.5703 9.06759 10.724 8.93738 10.9219C8.80717 11.1198 8.71082 11.3516 8.64832 11.6172C8.59103 11.8828 8.56238 12.1693 8.56238 12.4766Z" fill="white"/>
</svg>
