<svg width="17" height="16" viewBox="0 0 17 16" fill="none" xmlns="http://www.w3.org/2000/svg">
<g clip-path="url(#clip0_321_279)">
<path d="M8.11377 0C3.69566 0 0.11377 3.58189 0.11377 8C0.11377 11.3909 2.22077 14.2881 5.1969 15.4535C5.12447 14.8214 5.06521 13.8469 5.22323 13.1556C5.36809 12.53 6.15821 9.1786 6.15821 9.1786C6.15821 9.1786 5.92118 8.69794 5.92118 7.99342C5.92118 6.88066 6.56644 6.05103 7.36974 6.05103C8.05451 6.05103 8.38373 6.56461 8.38373 7.17695C8.38373 7.86173 7.94916 8.88889 7.71871 9.84362C7.52776 10.6403 8.12035 11.2922 8.90389 11.2922C10.3261 11.2922 11.4191 9.79095 11.4191 7.63128C11.4191 5.71523 10.043 4.3786 8.07426 4.3786C5.79607 4.3786 4.45945 6.08395 4.45945 7.84856C4.45945 8.53333 4.72282 9.27078 5.05204 9.67243C5.11788 9.75144 5.12447 9.82387 5.10472 9.90288C5.04546 10.1531 4.90719 10.6996 4.88085 10.8115C4.84793 10.9564 4.76233 10.9893 4.61089 10.9169C3.61007 10.4494 2.98455 8.99424 2.98455 7.81564C2.98455 5.29383 4.815 2.97613 8.27179 2.97613C11.0438 2.97613 13.2035 4.95144 13.2035 7.59835C13.2035 10.3572 11.4652 12.5761 9.05533 12.5761C8.24546 12.5761 7.48167 12.1547 7.22488 11.6543C7.22488 11.6543 6.82323 13.1819 6.72447 13.5572C6.54669 14.2551 6.05945 15.1243 5.73023 15.6576C6.48085 15.8881 7.27097 16.0132 8.1006 16.0132C12.5187 16.0132 16.1006 12.4313 16.1006 8.01317C16.1138 3.58189 12.5319 0 8.11377 0Z" fill="white"/>
</g>
<defs>
<clipPath id="clip0_321_279">
<rect width="16" height="16" fill="white" transform="translate(0.11377)"/>
</clipPath>
</defs>
</svg>
