<svg width="15" height="16" viewBox="0 0 15 16" fill="none" xmlns="http://www.w3.org/2000/svg">
<g clip-path="url(#clip0_321_272)">
<path d="M12.1997 3.20706C11.3364 2.6452 10.7138 1.7458 10.5193 0.697921C10.4775 0.471568 10.4542 0.238393 10.4542 0H7.69944L7.69502 11.0239C7.6488 12.2584 6.63116 13.2493 5.38402 13.2493C4.99617 13.2493 4.63124 13.1525 4.3097 12.9836C3.57259 12.5963 3.06819 11.8249 3.06819 10.9372C3.06819 9.66213 4.10714 8.62468 5.38362 8.62468C5.62195 8.62468 5.85064 8.66401 6.06687 8.73143V5.92329C5.843 5.89279 5.61552 5.87393 5.38362 5.87393C2.58791 5.87393 0.313477 8.14508 0.313477 10.9372C0.313477 12.6501 1.17036 14.1659 2.47818 15.0825C3.3017 15.6601 4.30368 16 5.38402 16C8.17973 16 10.4542 13.7288 10.4542 10.9372V5.34698C11.5345 6.12115 12.8584 6.57747 14.2868 6.57747V3.82672C13.5175 3.82672 12.8009 3.59836 12.1997 3.20706Z" fill="white"/>
</g>
<defs>
<clipPath id="clip0_321_272">
<rect width="13.9733" height="16" fill="white" transform="translate(0.313477)"/>
</clipPath>
</defs>
</svg>
