<svg width="22" height="16" viewBox="0 0 22 16" fill="none" xmlns="http://www.w3.org/2000/svg">
<path d="M21.4357 2.8423C21.1901 1.92028 20.4662 1.19423 19.547 0.947824C17.881 0.500001 11.2004 0.5 11.2004 0.5C11.2004 0.5 4.51978 0.500001 2.85373 0.947824C1.93458 1.19423 1.21063 1.92028 0.964973 2.8423C0.518555 4.51338 0.518555 8 0.518555 8C0.518555 8 0.518555 11.4866 0.964973 13.1578C1.21063 14.0797 1.93458 14.8058 2.85373 15.0523C4.51978 15.5 11.2004 15.5 11.2004 15.5C11.2004 15.5 17.881 15.5 19.547 15.0523C20.4662 14.8058 21.1901 14.0797 21.4357 13.1578C21.8822 11.4866 21.8822 8 21.8822 8C21.8822 8 21.8822 4.51338 21.4357 2.8423Z" fill="white"/>
<path d="M9.01611 11.1665L14.5998 8.00108L9.01611 4.83535V11.1665Z" fill="#1A1A1A"/>
</svg>
