<svg width="25" height="25" viewBox="0 0 25 25" fill="none" xmlns="http://www.w3.org/2000/svg">
<ellipse cx="12.5" cy="12.5" rx="12" ry="12" fill="#FFFBD8"/>
<mask id="mask0_657_4822" style="mask-type:alpha" maskUnits="userSpaceOnUse" x="5" y="5" width="16" height="16">
<rect x="5.12207" y="5.12231" width="14.9333" height="14.9333" fill="#D9D9D9"/>
</mask>
<g mask="url(#mask0_657_4822)">
<path d="M13.833 11.1268V10.3802C14.1752 10.235 14.5252 10.1261 14.883 10.0535C15.2408 9.9809 15.6167 9.9446 16.0108 9.9446C16.2804 9.9446 16.5449 9.96534 16.8041 10.0068C17.0634 10.0483 17.3175 10.1002 17.5664 10.1624V10.8468C17.3175 10.7535 17.066 10.6835 16.8119 10.6368C16.5578 10.5902 16.2908 10.5668 16.0108 10.5668C15.6167 10.5668 15.2382 10.6161 14.8752 10.7146C14.5123 10.8131 14.1649 10.9505 13.833 11.1268ZM13.833 14.549V13.7868C14.1752 13.6468 14.5252 13.5418 14.883 13.4718C15.2408 13.4018 15.6167 13.3668 16.0108 13.3668C16.2804 13.3668 16.5449 13.3876 16.8041 13.429C17.0634 13.4705 17.3175 13.5224 17.5664 13.5846V14.269C17.3175 14.1757 17.066 14.1057 16.8119 14.059C16.5578 14.0124 16.2908 13.989 16.0108 13.989C15.6167 13.989 15.2382 14.0357 14.8752 14.129C14.5123 14.2224 14.1649 14.3624 13.833 14.549ZM13.833 12.8379V12.0913C14.1752 11.9461 14.5252 11.8372 14.883 11.7646C15.2408 11.692 15.6167 11.6557 16.0108 11.6557C16.2804 11.6557 16.5449 11.6765 16.8041 11.7179C17.0634 11.7594 17.3175 11.8113 17.5664 11.8735V12.5579C17.3175 12.4646 17.066 12.3946 16.8119 12.3479C16.5578 12.3013 16.2908 12.2779 16.0108 12.2779C15.6167 12.2779 15.2382 12.3272 14.8752 12.4257C14.5123 12.5242 14.1649 12.6616 13.833 12.8379ZM8.97969 15.389C9.53524 15.389 10.0759 15.4539 10.6018 15.5835C11.1278 15.7131 11.6449 15.9076 12.153 16.1668V9.5246C11.6864 9.21349 11.1802 8.97238 10.6345 8.80127C10.0888 8.63016 9.53721 8.5446 8.97969 8.5446C8.58562 8.5446 8.19932 8.59386 7.82081 8.69238C7.44229 8.7909 7.06118 8.91275 6.67747 9.05793V15.809C6.99895 15.6639 7.36451 15.5576 7.77414 15.4902C8.18377 15.4227 8.58562 15.389 8.97969 15.389ZM13.0864 16.1668C13.6049 15.9076 14.113 15.7131 14.6108 15.5835C15.1086 15.4539 15.6375 15.389 16.1975 15.389C16.5915 15.389 16.9986 15.4202 17.4186 15.4824C17.8386 15.5446 18.1989 15.6276 18.4997 15.7313V9.05793C18.1471 8.88164 17.7747 8.75201 17.3825 8.66904C16.9903 8.58608 16.5953 8.5446 16.1975 8.5446C15.6375 8.5446 15.0956 8.63016 14.5719 8.80127C14.0482 8.97238 13.553 9.21349 13.0864 9.5246V16.1668ZM12.6197 17.5668C12.0908 17.1727 11.5152 16.8694 10.893 16.6568C10.2708 16.4442 9.63303 16.3379 8.97969 16.3379C8.60076 16.3379 8.22862 16.3846 7.86327 16.4779C7.49793 16.5713 7.13377 16.6853 6.77081 16.8202C6.53125 16.9342 6.30025 16.9187 6.07781 16.7735C5.85536 16.6283 5.74414 16.4209 5.74414 16.1513V8.94904C5.74414 8.79349 5.78044 8.6509 5.85303 8.52127C5.92562 8.39164 6.03451 8.29053 6.1797 8.21793C6.61525 8.01053 7.06838 7.85756 7.5391 7.75904C8.00991 7.66053 8.49011 7.61127 8.97969 7.61127C9.63303 7.61127 10.2682 7.69942 10.8852 7.87571C11.5023 8.05201 12.0804 8.32164 12.6197 8.6846C13.1486 8.32164 13.7164 8.05201 14.323 7.87571C14.9297 7.69942 15.5545 7.61127 16.1975 7.61127C16.6835 7.61127 17.1602 7.66053 17.6275 7.75904C18.0949 7.85756 18.5464 8.01053 18.9819 8.21793C19.1271 8.29053 19.2386 8.39164 19.3164 8.52127C19.3941 8.6509 19.433 8.79349 19.433 8.94904V16.1513C19.433 16.4405 19.3164 16.6606 19.083 16.8116C18.8497 16.9625 18.6189 16.9653 18.3908 16.8202C18.0382 16.675 17.6792 16.5583 17.3139 16.4702C16.9485 16.382 16.5764 16.3379 16.1975 16.3379C15.5441 16.3379 14.9167 16.4468 14.3152 16.6646C13.7138 16.8824 13.1486 17.1831 12.6197 17.5668Z" fill="#B3A100"/>
</g>
</svg>
