<svg width="25" height="25" viewBox="0 0 25 25" fill="none" xmlns="http://www.w3.org/2000/svg">
<ellipse cx="12.5" cy="12.5" rx="12" ry="12" fill="#EEEFFF"/>
<mask id="mask0_657_4805" style="mask-type:alpha" maskUnits="userSpaceOnUse" x="4" y="4" width="17" height="17">
<rect x="4.41113" y="4.41113" width="16.3556" height="16.3556" fill="#D9D9D9"/>
</mask>
<g mask="url(#mask0_657_4805)">
<path d="M6.79615 18.722C6.52356 18.722 6.28504 18.6198 6.08059 18.4153C5.87615 18.2109 5.77393 17.9724 5.77393 17.6998V9.52201C5.77393 9.24942 5.87615 9.0109 6.08059 8.80646C6.28504 8.60201 6.52356 8.49979 6.79615 8.49979H9.86281V6.79609C9.86281 6.52349 9.96504 6.28498 10.1695 6.08053C10.3739 5.87609 10.6124 5.77386 10.885 5.77386H14.2924C14.565 5.77386 14.8036 5.87609 15.008 6.08053C15.2124 6.28498 15.3147 6.52349 15.3147 6.79609V8.49979H18.3813C18.6539 8.49979 18.8924 8.60201 19.0969 8.80646C19.3013 9.0109 19.4036 9.24942 19.4036 9.52201V17.6998C19.4036 17.9724 19.3013 18.2109 19.0969 18.4153C18.8924 18.6198 18.6539 18.722 18.3813 18.722H6.79615ZM10.885 8.49979H14.2924V6.79609H10.885V8.49979ZM18.3813 14.4457H14.1391V15.4679H11.0724V14.4457H6.79615V17.6998H18.3813V14.4457ZM12.0947 14.4457H13.1169V13.4235H12.0947V14.4457ZM6.79615 13.4235H11.0724V12.4013H14.1391V13.4235H18.3813V9.52201H6.79615V13.4235Z" fill="#383FF8"/>
</g>
</svg>
