<svg width="13" height="12" viewBox="0 0 13 12" fill="none" xmlns="http://www.w3.org/2000/svg">
<mask id="mask0_657_4783" style="mask-type:alpha" maskUnits="userSpaceOnUse" x="0" y="0" width="13" height="12">
<rect x="0.5" width="12" height="12" fill="#D9D9D9"/>
</mask>
<g mask="url(#mask0_657_4783)">
<path d="M7.24975 6.75031C6.83309 6.75031 6.47892 6.60447 6.18725 6.31281C5.89559 6.02114 5.74975 5.66697 5.74975 5.25031C5.74975 4.83364 5.89559 4.47947 6.18725 4.18781C6.47892 3.89614 6.83309 3.75031 7.24975 3.75031C7.66642 3.75031 8.02059 3.89614 8.31225 4.18781C8.60392 4.47947 8.74975 4.83364 8.74975 5.25031C8.74975 5.66697 8.60392 6.02114 8.31225 6.31281C8.02059 6.60447 7.66642 6.75031 7.24975 6.75031ZM3.24976 8.50031C3.04351 8.50031 2.86696 8.42685 2.72013 8.27993C2.57321 8.1331 2.49976 7.95656 2.49976 7.75031V2.75031C2.49976 2.54406 2.57321 2.36747 2.72013 2.22056C2.86696 2.07372 3.04351 2.00031 3.24976 2.00031H11.2498C11.456 2.00031 11.6326 2.07372 11.7795 2.22056C11.9263 2.36747 11.9998 2.54406 11.9998 2.75031V7.75031C11.9998 7.95656 11.9263 8.1331 11.7795 8.27993C11.6326 8.42685 11.456 8.50031 11.2498 8.50031H3.24976ZM4.49976 7.75031H9.99975C9.99975 7.40031 10.1206 7.10447 10.3623 6.86281C10.6039 6.62114 10.8998 6.50031 11.2498 6.50031V4.00031C10.8998 4.00031 10.6039 3.87947 10.3623 3.63781C10.1206 3.39614 9.99975 3.10031 9.99975 2.75031H4.49976C4.49976 3.10031 4.37892 3.39614 4.13726 3.63781C3.89559 3.87947 3.59976 4.00031 3.24976 4.00031V6.50031C3.59976 6.50031 3.89559 6.62114 4.13726 6.86281C4.37892 7.10447 4.49976 7.40031 4.49976 7.75031ZM10.4998 10.0003H1.74976C1.54351 10.0003 1.36696 9.92685 1.22013 9.77993C1.07321 9.6331 0.999756 9.45656 0.999756 9.25031V3.50031H1.74976V9.25031H10.4998V10.0003Z" fill="#EA45F8"/>
</g>
</svg>
