<svg width="13" height="12" viewBox="0 0 13 12" fill="none" xmlns="http://www.w3.org/2000/svg">
<mask id="mask0_657_4800" style="mask-type:alpha" maskUnits="userSpaceOnUse" x="0" y="0" width="13" height="12">
<rect x="0.5" width="12" height="12" fill="#D9D9D9"/>
</mask>
<g mask="url(#mask0_657_4800)">
<path d="M6.4375 10.25C6.47917 10.25 6.52708 10.2395 6.58125 10.2187C6.63542 10.1979 6.67917 10.1708 6.7125 10.1375L10.925 5.91245C11.0333 5.80412 11.1146 5.68049 11.1687 5.54158C11.2229 5.40274 11.25 5.26387 11.25 5.12495C11.25 4.98328 11.2229 4.84162 11.1687 4.69995C11.1146 4.55828 11.0333 4.43328 10.925 4.32495L8.675 2.07495C8.56667 1.96662 8.44167 1.88537 8.3 1.8312C8.15833 1.77703 8.01667 1.74995 7.875 1.74995C7.73608 1.74995 7.59721 1.77703 7.45837 1.8312C7.31946 1.88537 7.19583 1.96662 7.0875 2.07495L6.8625 2.29995L7.875 3.32495C7.98333 3.44162 8.07917 3.57703 8.1625 3.7312C8.24583 3.88537 8.2875 4.05412 8.2875 4.23745C8.2875 4.55412 8.16458 4.83328 7.91875 5.07495C7.67292 5.31662 7.39167 5.43745 7.075 5.43745C6.86667 5.43745 6.69375 5.4062 6.55625 5.3437C6.41875 5.2812 6.29296 5.19228 6.17887 5.07695L5.2625 4.16245L3 6.42495C2.95833 6.46662 2.92917 6.51049 2.9125 6.55658C2.89583 6.60258 2.8875 6.65191 2.8875 6.70458C2.8875 6.80983 2.92292 6.89787 2.99375 6.9687C3.06458 7.03953 3.15279 7.07495 3.25837 7.07495C3.31113 7.07495 3.36042 7.06245 3.40625 7.03745C3.45208 7.01245 3.49167 6.98328 3.525 6.94995L5.25 5.22495L5.775 5.74995L4.0625 7.46245C4.02083 7.50412 3.99167 7.54995 3.975 7.59995C3.95833 7.64995 3.95 7.69995 3.95 7.74995C3.95 7.84995 3.9875 7.93745 4.0625 8.01245C4.1375 8.08745 4.225 8.12495 4.325 8.12495C4.375 8.12495 4.42292 8.11453 4.46875 8.0937C4.51458 8.07287 4.55417 8.04578 4.5875 8.01245L6.3125 6.28745L6.8375 6.81245L5.125 8.52495C5.09167 8.55828 5.06458 8.60133 5.04375 8.65408C5.02292 8.70691 5.0125 8.7597 5.0125 8.81245C5.0125 8.91245 5.05 8.99995 5.125 9.07495C5.2 9.14995 5.2875 9.18745 5.3875 9.18745C5.4375 9.18745 5.48333 9.17912 5.525 9.16245C5.56667 9.14579 5.60833 9.11662 5.65 9.07495L7.375 7.34995L7.9 7.87495L6.175 9.59995C6.13333 9.64162 6.10417 9.68745 6.0875 9.73745C6.07083 9.78745 6.0625 9.83328 6.0625 9.87495C6.0625 9.99162 6.09583 10.0833 6.1625 10.15C6.22917 10.2166 6.32083 10.25 6.4375 10.25ZM6.43825 11C6.16275 11 5.91667 10.8979 5.7 10.6937C5.48333 10.4895 5.35417 10.237 5.3125 9.93595C5.02917 9.89528 4.79167 9.77912 4.6 9.58745C4.40833 9.39578 4.29167 9.15829 4.25 8.87495C3.96667 8.83328 3.73125 8.71453 3.54375 8.5187C3.35625 8.32287 3.24167 8.08745 3.2 7.81245C2.89167 7.77078 2.6375 7.64578 2.4375 7.43745C2.2375 7.22912 2.1375 6.97912 2.1375 6.68745C2.1375 6.54578 2.1655 6.40391 2.2215 6.26183C2.27758 6.11974 2.35792 5.99495 2.4625 5.88745L5.2625 3.08745L6.6375 4.46245C6.70417 4.52912 6.77637 4.5812 6.85413 4.6187C6.93196 4.6562 7.00975 4.67495 7.0875 4.67495C7.19583 4.67495 7.29792 4.62703 7.39375 4.5312C7.48958 4.43537 7.5375 4.33266 7.5375 4.22308C7.5375 4.17433 7.52292 4.1187 7.49375 4.0562C7.46458 3.9937 7.41667 3.92912 7.35 3.86245L5.5625 2.07495C5.45417 1.96662 5.32917 1.88537 5.1875 1.8312C5.04583 1.77703 4.90417 1.74995 4.7625 1.74995C4.62358 1.74995 4.48471 1.77703 4.34588 1.8312C4.20696 1.88537 4.08358 1.96603 3.97575 2.0732L2.075 3.97495C1.95833 4.09162 1.87708 4.21453 1.83125 4.3437C1.78542 4.47287 1.75833 4.6187 1.75 4.7812C1.74167 4.9437 1.77292 5.10203 1.84375 5.2562C1.91458 5.41037 2 5.54995 2.1 5.67495L1.5625 6.21245C1.39583 6.02912 1.26042 5.80828 1.15625 5.54995C1.05208 5.29162 1 5.02912 1 4.76245C1 4.51245 1.04792 4.27287 1.14375 4.0437C1.23958 3.81453 1.375 3.61245 1.55 3.43745L3.4375 1.54995C3.62083 1.36662 3.82829 1.2312 4.05988 1.1437C4.29154 1.0562 4.52904 1.01245 4.77238 1.01245C5.01579 1.01245 5.25208 1.0562 5.48125 1.1437C5.71042 1.2312 5.91667 1.36662 6.1 1.54995L6.325 1.77495L6.55 1.54995C6.73333 1.36662 6.94079 1.2312 7.17237 1.1437C7.40404 1.0562 7.64154 1.01245 7.88487 1.01245C8.12829 1.01245 8.36458 1.0562 8.59375 1.1437C8.82292 1.2312 9.02917 1.36662 9.2125 1.54995L11.45 3.78745C11.6333 3.97078 11.7708 4.17924 11.8625 4.41283C11.9542 4.64649 12 4.88399 12 5.12533C12 5.36674 11.9542 5.60203 11.8625 5.8312C11.7708 6.06037 11.6333 6.26662 11.45 6.44995L7.2375 10.6625C7.12917 10.7708 7.00613 10.8541 6.86838 10.9125C6.73063 10.9708 6.58725 11 6.43825 11Z" fill="#F754A2"/>
</g>
</svg>
