<svg width="25" height="25" viewBox="0 0 25 25" fill="none" xmlns="http://www.w3.org/2000/svg">
<ellipse cx="12.5" cy="12.5" rx="12" ry="12" fill="#FDE9FF"/>
<mask id="mask0_657_4771" style="mask-type:alpha" maskUnits="userSpaceOnUse" x="3" y="3" width="19" height="19">
<rect x="3.69995" y="3.70001" width="17.7778" height="17.7778" fill="#D9D9D9"/>
</mask>
<g mask="url(#mask0_657_4771)">
<path d="M11.8665 19.2558V17.6632C11.2122 17.515 10.6473 17.2311 10.172 16.8113C9.69672 16.3916 9.34795 15.799 9.12573 15.0335L10.4961 14.478C10.6813 15.0706 10.956 15.5212 11.3202 15.8298C11.6844 16.1385 12.1628 16.2928 12.7554 16.2928C13.2615 16.2928 13.6905 16.1786 14.0424 15.9502C14.3942 15.7218 14.5702 15.3669 14.5702 14.8854C14.5702 14.4533 14.4344 14.1107 14.1628 13.8576C13.8912 13.6045 13.2615 13.3175 12.2739 12.9965C11.2122 12.6632 10.4838 12.265 10.0887 11.8021C9.69363 11.3391 9.4961 10.7743 9.4961 10.1076C9.4961 9.30514 9.75536 8.68168 10.2739 8.23724C10.7924 7.79279 11.3233 7.53971 11.8665 7.47798V5.92242H13.348V7.47798C13.9652 7.57675 14.4745 7.80205 14.8757 8.15391C15.277 8.50576 15.5702 8.93477 15.7554 9.44094L14.385 10.0335C14.2368 9.63847 14.027 9.34218 13.7554 9.14465C13.4838 8.94712 13.1134 8.84835 12.6442 8.84835C12.101 8.84835 11.6875 8.96872 11.4035 9.20946C11.1196 9.4502 10.9776 9.74958 10.9776 10.1076C10.9776 10.515 11.1628 10.836 11.5331 11.0706C11.9035 11.3051 12.5455 11.5521 13.4591 11.8113C14.3109 12.0582 14.956 12.4502 15.3942 12.9872C15.8325 13.5243 16.0517 14.1446 16.0517 14.8484C16.0517 15.7249 15.7924 16.3916 15.2739 16.8483C14.7554 17.3051 14.1134 17.5891 13.348 17.7002V19.2558H11.8665Z" fill="#EA45F8"/>
</g>
</svg>
