<svg width="13" height="12" viewBox="0 0 13 12" fill="none" xmlns="http://www.w3.org/2000/svg">
<mask id="mask0_657_4817" style="mask-type:alpha" maskUnits="userSpaceOnUse" x="0" y="0" width="13" height="12">
<rect x="0.5" width="12" height="12" fill="#D9D9D9"/>
</mask>
<g mask="url(#mask0_657_4817)">
<path d="M3.25 11C3.05 11 2.875 10.925 2.725 10.775C2.575 10.625 2.5 10.45 2.5 10.25V3.75C2.5 3.55 2.575 3.375 2.725 3.225C2.875 3.075 3.05 3 3.25 3H4.625V2.875C4.625 2.35 4.80625 1.90625 5.16875 1.54375C5.53125 1.18125 5.975 1 6.5 1C7.025 1 7.46875 1.18125 7.83125 1.54375C8.19375 1.90625 8.375 2.35 8.375 2.875V3H9.75C9.95 3 10.125 3.075 10.275 3.225C10.425 3.375 10.5 3.55 10.5 3.75V10.25C10.5 10.45 10.425 10.625 10.275 10.775C10.125 10.925 9.95 11 9.75 11H3.25ZM3.25 10.25H9.75V3.75H8.375V4.875C8.375 4.98125 8.33883 5.07029 8.2665 5.14213C8.19425 5.21404 8.10467 5.25 7.99775 5.25C7.89092 5.25 7.80208 5.21404 7.73125 5.14213C7.66042 5.07029 7.625 4.98125 7.625 4.875V3.75H5.375V4.875C5.375 4.98125 5.33883 5.07029 5.2665 5.14213C5.19425 5.21404 5.10467 5.25 4.99775 5.25C4.89092 5.25 4.80208 5.21404 4.73125 5.14213C4.66042 5.07029 4.625 4.98125 4.625 4.875V3.75H3.25V10.25ZM5.375 3H7.625V2.875C7.625 2.55833 7.51667 2.29167 7.3 2.075C7.08333 1.85833 6.81667 1.75 6.5 1.75C6.18333 1.75 5.91667 1.85833 5.7 2.075C5.48333 2.29167 5.375 2.55833 5.375 2.875V3Z" fill="#383FF8"/>
</g>
</svg>
