<svg width="25" height="25" viewBox="0 0 25 25" fill="none" xmlns="http://www.w3.org/2000/svg">
<ellipse cx="12.5" cy="12.5" rx="12" ry="12" fill="#FFE6F2"/>
<mask id="mask0_657_4788" style="mask-type:alpha" maskUnits="userSpaceOnUse" x="3" y="3" width="19" height="19">
<rect x="3.7002" y="3.70001" width="17.7778" height="17.7778" fill="#D9D9D9"/>
</mask>
<g mask="url(#mask0_657_4788)">
<path d="M11.7742 15.0516L15.9964 10.8294L15.2186 10.0701L11.8298 13.459L9.95938 11.5886L9.14457 12.4035L11.7742 15.0516ZM12.589 19.9775C10.8606 19.5454 9.44086 18.5424 8.32975 16.9683C7.21864 15.3942 6.66309 13.6689 6.66309 11.7924V7.38494L12.589 5.16272L18.5149 7.38494V11.7924C18.5149 13.6689 17.9594 15.3942 16.8483 16.9683C15.7372 18.5424 14.3174 19.5454 12.589 19.9775ZM12.589 18.8294C14.0088 18.3603 15.1662 17.4745 16.0612 16.172C16.9563 14.8695 17.4038 13.4096 17.4038 11.7924V8.16272L12.589 6.34791L7.7742 8.16272V11.7924C7.7742 13.4096 8.22173 14.8695 9.11679 16.172C10.0118 17.4745 11.1693 18.3603 12.589 18.8294Z" fill="#F754A2"/>
</g>
</svg>
