<svg width="56" height="57" viewBox="0 0 56 57" fill="none" xmlns="http://www.w3.org/2000/svg">
<rect y="0.620117" width="56" height="56" rx="28" fill="#EAF5FC"/>
<mask id="mask0_657_5247" style="mask-type:alpha" maskUnits="userSpaceOnUse" x="13" y="14" width="30" height="30">
<rect x="13.4814" y="14.1013" width="29.037" height="29.037" fill="#D9D9D9"/>
</mask>
<g mask="url(#mask0_657_5247)">
<path d="M24.3743 23.78V21.3603H31.6336V23.78H24.3743ZM21.9546 40.7183C21.2891 40.7183 20.7195 40.4814 20.2456 40.0075C19.7717 39.5336 19.5348 38.964 19.5348 38.2985C19.5348 37.6331 19.7717 37.0634 20.2456 36.5896C20.7195 36.1157 21.2891 35.8788 21.9546 35.8788C22.62 35.8788 23.1896 36.1157 23.6635 36.5896C24.1374 37.0634 24.3743 37.6331 24.3743 38.2985C24.3743 38.964 24.1374 39.5336 23.6635 40.0075C23.1896 40.4814 22.62 40.7183 21.9546 40.7183ZM34.0533 40.7183C33.3879 40.7183 32.8182 40.4814 32.3444 40.0075C31.8705 39.5336 31.6336 38.964 31.6336 38.2985C31.6336 37.6331 31.8705 37.0634 32.3444 36.5896C32.8182 36.1157 33.3879 35.8788 34.0533 35.8788C34.7187 35.8788 35.2884 36.1157 35.7623 36.5896C36.2361 37.0634 36.4731 37.6331 36.4731 38.2985C36.4731 38.964 36.2361 39.5336 35.7623 40.0075C35.2884 40.4814 34.7187 40.7183 34.0533 40.7183ZM14.6953 18.9405V16.5208H18.6577L23.7996 27.4096H32.2688L36.9873 18.9405H39.7397L34.4163 28.559C34.1945 28.9623 33.897 29.2749 33.524 29.4967C33.151 29.7185 32.7426 29.8294 32.299 29.8294H23.2854L21.9546 32.2491H36.4731V34.6689H21.9546C21.0472 34.6689 20.3565 34.2757 19.8827 33.4893C19.4088 32.7029 19.3937 31.9064 19.8373 31.0998L21.4706 28.1356L17.1151 18.9405H14.6953Z" fill="#005BAA"/>
</g>
</svg>
