<svg width="56" height="57" viewBox="0 0 56 57" fill="none" xmlns="http://www.w3.org/2000/svg">
<rect y="0.620117" width="56" height="56" rx="28" fill="#EAF5FC"/>
<mask id="mask0_657_5258" style="mask-type:alpha" maskUnits="userSpaceOnUse" x="12" y="13" width="32" height="32">
<rect x="12.5" y="13.1201" width="31" height="31" fill="#D9D9D9"/>
</mask>
<g mask="url(#mask0_657_5258)">
<path d="M20.252 41.5362C19.5416 41.5362 18.9335 41.2833 18.4276 40.7774C17.9217 40.2715 17.6687 39.6633 17.6687 38.9529V23.4529C17.6687 22.7425 17.9217 22.1343 18.4276 21.6284C18.9335 21.1225 19.5416 20.8695 20.252 20.8695H22.8354C22.8354 19.4487 23.3413 18.2324 24.3531 17.2206C25.3649 16.2088 26.5812 15.7029 28.002 15.7029C29.4229 15.7029 30.6392 16.2088 31.651 17.2206C32.6628 18.2324 33.1687 19.4487 33.1687 20.8695H35.752C36.4624 20.8695 37.0706 21.1225 37.5765 21.6284C38.0824 22.1343 38.3354 22.7425 38.3354 23.4529V38.9529C38.3354 39.6633 38.0824 40.2715 37.5765 40.7774C37.0706 41.2833 36.4624 41.5362 35.752 41.5362H20.252ZM20.252 38.9529H35.752V23.4529H33.1687V26.0362C33.1687 26.4022 33.0449 26.709 32.7973 26.9565C32.5498 27.2041 32.243 27.3279 31.877 27.3279C31.5111 27.3279 31.2043 27.2041 30.9567 26.9565C30.7092 26.709 30.5854 26.4022 30.5854 26.0362V23.4529H25.4187V26.0362C25.4187 26.4022 25.2949 26.709 25.0473 26.9565C24.7998 27.2041 24.493 27.3279 24.127 27.3279C23.7611 27.3279 23.4543 27.2041 23.2067 26.9565C22.9592 26.709 22.8354 26.4022 22.8354 26.0362V23.4529H20.252V38.9529ZM25.4187 20.8695H30.5854C30.5854 20.1591 30.3324 19.551 29.8265 19.0451C29.3206 18.5392 28.7124 18.2862 28.002 18.2862C27.2916 18.2862 26.6835 18.5392 26.1776 19.0451C25.6717 19.551 25.4187 20.1591 25.4187 20.8695Z" fill="#005BAA"/>
</g>
</svg>
