<svg width="56" height="57" viewBox="0 0 56 57" fill="none" xmlns="http://www.w3.org/2000/svg">
<rect y="0.620117" width="56" height="56" rx="28" fill="#EAF5FC"/>
<path d="M38.5485 18.4672C35.7411 15.6885 31.9496 14.1314 27.9996 14.135H27.8518C23.879 14.174 20.0821 15.7795 17.2867 18.6027C14.4912 21.4258 12.9231 25.2383 12.9233 29.2112C12.9233 35.4324 16.7766 40.6573 22.9742 42.8478C23.454 43.0181 23.9593 43.1051 24.4685 43.105C25.6409 43.0984 26.7633 42.6286 27.5908 41.798C28.4184 40.9674 28.8841 39.8433 28.8864 38.6708C28.8864 37.9652 29.1667 37.2885 29.6656 36.7896C30.1646 36.2906 30.8413 36.0103 31.5469 36.0103H38.377C39.3826 36.0153 40.3596 35.6764 41.146 35.0497C41.9324 34.423 42.4808 33.5463 42.7004 32.565C42.9597 31.4216 43.0856 30.252 43.0758 29.0797C43.0609 27.0992 42.6531 25.1413 41.876 23.3196C41.0988 21.4979 39.9678 19.8486 38.5485 18.4672ZM40.971 32.1674C40.8398 32.7565 40.5109 33.2831 40.039 33.6595C39.5671 34.036 38.9807 34.2396 38.377 34.2366H31.5469C30.3709 34.2366 29.243 34.7038 28.4115 35.5354C27.5799 36.367 27.1127 37.4948 27.1127 38.6708C27.1134 39.0968 27.0118 39.5168 26.8164 39.8953C26.6211 40.2739 26.3377 40.6 25.99 40.8462C25.6424 41.0925 25.2407 41.2516 24.8188 41.3103C24.3969 41.369 23.967 41.3255 23.5654 41.1835C18.0966 39.2414 14.697 34.6579 14.697 29.2112C14.6968 25.7069 16.0795 22.344 18.5445 19.8532C21.0096 17.3624 24.3579 15.9449 27.8621 15.9087H27.9996C31.5037 15.9216 34.8624 17.3115 37.351 19.7785C39.8396 22.2456 41.2587 25.592 41.3021 29.0959C41.3108 30.1291 41.1997 31.1598 40.971 32.1674ZM29.4776 21.5253C29.4776 21.8177 29.3909 22.1034 29.2285 22.3465C29.0661 22.5896 28.8353 22.779 28.5652 22.8909C28.2951 23.0027 27.9979 23.032 27.7112 22.975C27.4245 22.9179 27.1611 22.7772 26.9544 22.5705C26.7477 22.3638 26.6069 22.1004 26.5499 21.8137C26.4929 21.527 26.5221 21.2298 26.634 20.9597C26.7459 20.6896 26.9353 20.4588 27.1784 20.2964C27.4215 20.1339 27.7072 20.0473 27.9996 20.0473C28.3916 20.0473 28.7675 20.203 29.0447 20.4802C29.3219 20.7574 29.4776 21.1333 29.4776 21.5253ZM22.9742 25.0727C22.9742 25.365 22.8875 25.6508 22.7251 25.8938C22.5626 26.1369 22.3318 26.3263 22.0617 26.4382C21.7916 26.5501 21.4945 26.5794 21.2077 26.5223C20.921 26.4653 20.6577 26.3245 20.4509 26.1178C20.2442 25.9111 20.1035 25.6477 20.0464 25.361C19.9894 25.0743 20.0187 24.7771 20.1305 24.507C20.2424 24.237 20.4319 24.0061 20.6749 23.8437C20.918 23.6813 21.2038 23.5946 21.4961 23.5946C21.8881 23.5946 22.264 23.7503 22.5412 24.0275C22.8184 24.3047 22.9742 24.6807 22.9742 25.0727ZM22.9742 33.3498C22.9742 33.6421 22.8875 33.9279 22.7251 34.171C22.5626 34.414 22.3318 34.6035 22.0617 34.7154C21.7916 34.8272 21.4945 34.8565 21.2077 34.7995C20.921 34.7424 20.6577 34.6017 20.4509 34.395C20.2442 34.1882 20.1035 33.9249 20.0464 33.6382C19.9894 33.3514 20.0187 33.0543 20.1305 32.7842C20.2424 32.5141 20.4319 32.2833 20.6749 32.1208C20.918 31.9584 21.2038 31.8717 21.4961 31.8717C21.8881 31.8717 22.264 32.0275 22.5412 32.3047C22.8184 32.5818 22.9742 32.9578 22.9742 33.3498ZM35.9811 25.0727C35.9811 25.365 35.8944 25.6508 35.732 25.8938C35.5696 26.1369 35.3387 26.3263 35.0687 26.4382C34.7986 26.5501 34.5014 26.5794 34.2147 26.5223C33.928 26.4653 33.6646 26.3245 33.4579 26.1178C33.2512 25.9111 33.1104 25.6477 33.0534 25.361C32.9963 25.0743 33.0256 24.7771 33.1375 24.507C33.2493 24.237 33.4388 24.0061 33.6819 23.8437C33.9249 23.6813 34.2107 23.5946 34.503 23.5946C34.895 23.5946 35.271 23.7503 35.5482 24.0275C35.8254 24.3047 35.9811 24.6807 35.9811 25.0727Z" fill="#005BAA" stroke="#005BAA"/>
</svg>
